<svg xmlns="http://www.w3.org/2000/svg" xmlns:xlink="http://www.w3.org/1999/xlink" width="604" zoomAndPan="magnify" viewBox="0 0 452.88 187.499995" height="250" preserveAspectRatio="xMidYMid meet" version="1.0"><defs><g/><clipPath id="08742260fe"><path d="M 0.542969 0 L 452.21875 0 L 452.21875 187 L 0.542969 187 Z M 0.542969 0 " clip-rule="nonzero"/></clipPath><clipPath id="6895aa7513"><path d="M 224.039062 114.789062 L 253.1875 114.789062 L 253.1875 155.390625 L 224.039062 155.390625 Z M 224.039062 114.789062 " clip-rule="nonzero"/></clipPath><clipPath id="6d5d85ea63"><path d="M 299.617188 35.769531 L 314.414062 35.769531 L 314.414062 107.203125 L 299.617188 107.203125 Z M 299.617188 35.769531 " clip-rule="nonzero"/></clipPath><clipPath id="84b71d679a"><path d="M 299.621094 92.394531 L 357.222656 92.394531 L 357.222656 107.191406 L 299.621094 107.191406 Z M 299.621094 92.394531 " clip-rule="nonzero"/></clipPath><clipPath id="d3b8916da5"><path d="M 299.613281 64.085938 L 341.761719 64.085938 L 341.761719 78.882812 L 299.613281 78.882812 Z M 299.613281 64.085938 " clip-rule="nonzero"/></clipPath><clipPath id="bb64f4b615"><path d="M 299.617188 35.761719 L 330.347656 35.761719 L 330.347656 50.558594 L 299.617188 50.558594 Z M 299.617188 35.761719 " clip-rule="nonzero"/></clipPath><clipPath id="8f3ef6665a"><path d="M 115.773438 35.769531 L 130.570312 35.769531 L 130.570312 107.203125 L 115.773438 107.203125 Z M 115.773438 35.769531 " clip-rule="nonzero"/></clipPath><clipPath id="66252c4b7b"><path d="M 115.769531 92.402344 L 151.753906 92.402344 L 151.753906 107.199219 L 115.769531 107.199219 Z M 115.769531 92.402344 " clip-rule="nonzero"/></clipPath><clipPath id="3e8ffc9bd9"><path d="M 115.769531 64.082031 L 151.753906 64.082031 L 151.753906 78.878906 L 115.769531 78.878906 Z M 115.769531 64.082031 " clip-rule="nonzero"/></clipPath><clipPath id="b2e92a4c30"><path d="M 115.769531 35.765625 L 151.753906 35.765625 L 151.753906 50.558594 L 115.769531 50.558594 Z M 115.769531 35.765625 " clip-rule="nonzero"/></clipPath></defs><g clip-path="url(#08742260fe)"><path fill="transparent" d="M 0.542969 0 L 452.335938 0 L 452.335938 187 L 0.542969 187 Z M 0.542969 0 " fill-opacity="0" fill-rule="nonzero"/></g><g fill="#77353d" fill-opacity="1"><g transform="translate(130.092024, 106.391248)"><g/></g></g><g fill="#77353d" fill-opacity="1"><g transform="translate(158.187908, 106.391248)"><g><path d="M 28.984375 -70.734375 C 34.847656 -70.734375 39.988281 -69.742188 44.40625 -67.765625 C 48.832031 -65.785156 52.507812 -63.113281 55.4375 -59.75 C 58.375 -56.382812 60.582031 -52.59375 62.0625 -48.375 C 63.550781 -44.15625 64.296875 -39.816406 64.296875 -35.359375 C 64.296875 -30.910156 63.550781 -26.578125 62.0625 -22.359375 C 60.582031 -18.140625 58.375 -14.347656 55.4375 -10.984375 C 52.507812 -7.617188 48.832031 -4.945312 44.40625 -2.96875 C 39.988281 -0.988281 34.847656 0 28.984375 0 L 7.90625 0 L 7.90625 -70.734375 Z M 28.984375 -56.578125 L 22.0625 -56.578125 L 22.0625 -14.140625 L 28.984375 -14.140625 C 32.941406 -14.140625 36.320312 -14.898438 39.125 -16.421875 C 41.925781 -17.941406 44.164062 -19.96875 45.84375 -22.5 C 47.53125 -25.039062 48.648438 -27.828125 49.203125 -30.859375 C 49.765625 -33.890625 49.765625 -36.90625 49.203125 -39.90625 C 48.648438 -42.914062 47.53125 -45.6875 45.84375 -48.21875 C 44.164062 -50.757812 41.925781 -52.785156 39.125 -54.296875 C 36.320312 -55.816406 32.941406 -56.578125 28.984375 -56.578125 Z M 28.984375 -56.578125 "/></g></g></g><g fill="#77353d" fill-opacity="1"><g transform="translate(227.826754, 106.391248)"><g><path d="M 58.953125 -4.359375 C 56.253906 -2.835938 53.367188 -1.664062 50.296875 -0.84375 C 47.234375 -0.0195312 44.019531 0.390625 40.65625 0.390625 C 34.851562 0.390625 29.722656 -0.597656 25.265625 -2.578125 C 20.816406 -4.554688 17.078125 -7.207031 14.046875 -10.53125 C 11.015625 -13.863281 8.722656 -17.625 7.171875 -21.8125 C 5.617188 -26 4.8125 -30.332031 4.75 -34.8125 C 4.6875 -39.300781 5.363281 -43.65625 6.78125 -47.875 C 8.195312 -52.09375 10.390625 -55.929688 13.359375 -59.390625 C 16.328125 -62.859375 20.082031 -65.664062 24.625 -67.8125 C 29.175781 -69.957031 34.519531 -71.128906 40.65625 -71.328125 C 43.488281 -71.453125 46.078125 -71.316406 48.421875 -70.921875 C 50.765625 -70.523438 52.707031 -70.097656 54.25 -69.640625 C 55.800781 -69.179688 56.773438 -68.882812 57.171875 -68.75 L 55.5 -54.40625 C 54.113281 -55 52.234375 -55.609375 49.859375 -56.234375 C 47.484375 -56.859375 44.414062 -57.109375 40.65625 -56.984375 C 36.570312 -56.847656 33.09375 -55.953125 30.21875 -54.296875 C 27.351562 -52.648438 25.078125 -50.539062 23.390625 -47.96875 C 21.710938 -45.40625 20.609375 -42.601562 20.078125 -39.5625 C 19.554688 -36.53125 19.59375 -33.5 20.1875 -30.46875 C 20.78125 -27.4375 21.945312 -24.648438 23.6875 -22.109375 C 25.4375 -19.566406 27.726562 -17.535156 30.5625 -16.015625 C 33.40625 -14.503906 36.769531 -13.75 40.65625 -13.75 C 41.3125 -13.75 41.96875 -13.796875 42.625 -13.890625 C 43.289062 -13.992188 43.953125 -14.078125 44.609375 -14.140625 L 44.609375 -35.40625 L 58.953125 -35.40625 Z M 58.953125 -4.359375 "/></g></g></g><g fill="#77353d" fill-opacity="1"><g transform="translate(294.399725, 106.391248)"><g/></g></g><g fill="#77353d" fill-opacity="1"><g transform="translate(322.492666, 106.391248)"><g/></g></g><g fill="#000000" fill-opacity="1"><g transform="translate(165.892806, 28.437838)"><g><path d="M 1.21875 -1.1875 L 1.671875 -5.0625 C 2.378906 -4.5625 3.082031 -4.203125 3.78125 -3.984375 C 4.476562 -3.765625 5.109375 -3.640625 5.671875 -3.609375 C 6.242188 -3.578125 6.664062 -3.566406 6.9375 -3.578125 C 7.488281 -3.617188 7.957031 -3.8125 8.34375 -4.15625 C 8.726562 -4.507812 8.894531 -4.9375 8.84375 -5.4375 C 8.8125 -5.976562 8.613281 -6.382812 8.25 -6.65625 C 7.894531 -6.925781 7.457031 -7.148438 6.9375 -7.328125 C 5.976562 -7.691406 5.082031 -8.109375 4.25 -8.578125 C 3.414062 -9.046875 2.742188 -9.632812 2.234375 -10.34375 C 1.722656 -11.050781 1.46875 -11.921875 1.46875 -12.953125 C 1.46875 -13.984375 1.6875 -14.914062 2.125 -15.75 C 2.5625 -16.582031 3.175781 -17.25 3.96875 -17.75 C 4.757812 -18.25 5.664062 -18.523438 6.6875 -18.578125 C 7.164062 -18.609375 7.753906 -18.585938 8.453125 -18.515625 C 9.148438 -18.453125 10.085938 -18.210938 11.265625 -17.796875 L 10.8125 -14.234375 C 9.789062 -14.648438 8.976562 -14.890625 8.375 -14.953125 C 7.78125 -15.015625 7.335938 -15.035156 7.046875 -15.015625 C 6.390625 -14.984375 5.910156 -14.757812 5.609375 -14.34375 C 5.304688 -13.925781 5.175781 -13.460938 5.21875 -12.953125 C 5.257812 -12.429688 5.476562 -12.035156 5.875 -11.765625 C 6.269531 -11.503906 6.738281 -11.28125 7.28125 -11.09375 C 8.238281 -10.75 9.117188 -10.320312 9.921875 -9.8125 C 10.734375 -9.3125 11.382812 -8.703125 11.875 -7.984375 C 12.363281 -7.265625 12.609375 -6.414062 12.609375 -5.4375 C 12.609375 -4.425781 12.382812 -3.503906 11.9375 -2.671875 C 11.488281 -1.847656 10.847656 -1.1875 10.015625 -0.6875 C 9.179688 -0.195312 8.191406 0.0820312 7.046875 0.15625 C 6.703125 0.175781 6.234375 0.160156 5.640625 0.109375 C 5.046875 0.0664062 4.367188 -0.0507812 3.609375 -0.25 C 2.847656 -0.445312 2.050781 -0.757812 1.21875 -1.1875 Z M 1.21875 -1.1875 "/></g></g></g><g fill="#000000" fill-opacity="1"><g transform="translate(179.537501, 28.437838)"><g><path d="M 8.796875 0 L 5.109375 0 L 5.109375 -14.75 L 0.515625 -14.75 L 0.515625 -18.421875 L 13.390625 -18.421875 L 13.390625 -14.75 L 8.796875 -14.75 Z M 8.796875 0 "/></g></g></g><g fill="#000000" fill-opacity="1"><g transform="translate(193.646474, 28.437838)"><g><path d="M 11.25 0 L 7.53125 -7.046875 L 5.75 -7.046875 L 5.75 0 L 2.0625 0 L 2.0625 -18.4375 L 9.34375 -18.4375 C 10.4375 -18.4375 11.363281 -18.207031 12.125 -17.75 C 12.894531 -17.300781 13.492188 -16.710938 13.921875 -15.984375 C 14.359375 -15.253906 14.628906 -14.460938 14.734375 -13.609375 C 14.835938 -12.753906 14.769531 -11.914062 14.53125 -11.09375 C 14.300781 -10.28125 13.90625 -9.5625 13.34375 -8.9375 C 12.789062 -8.3125 12.054688 -7.867188 11.140625 -7.609375 L 15.421875 0 Z M 5.75 -10.625 L 9 -10.625 C 9.5 -10.625 9.898438 -10.757812 10.203125 -11.03125 C 10.503906 -11.3125 10.707031 -11.65625 10.8125 -12.0625 C 10.914062 -12.476562 10.914062 -12.894531 10.8125 -13.3125 C 10.707031 -13.726562 10.503906 -14.070312 10.203125 -14.34375 C 9.898438 -14.613281 9.5 -14.75 9 -14.75 L 5.75 -14.75 Z M 5.75 -10.625 "/></g></g></g><g fill="#000000" fill-opacity="1"><g transform="translate(209.457811, 28.437838)"><g><path d="M 11.609375 0 L 2.0625 0 L 2.0625 -18.4375 L 11.296875 -18.4375 L 11.296875 -14.75 L 5.75 -14.75 L 5.75 -11.0625 L 10.609375 -11.0625 L 10.609375 -7.375 L 5.75 -7.375 L 5.75 -3.6875 L 11.609375 -3.6875 Z M 11.609375 0 "/></g></g></g><g fill="#000000" fill-opacity="1"><g transform="translate(222.457673, 28.437838)"><g><path d="M 5.75 -10.03125 L 5.75 0 L 2.0625 0 L 2.0625 -18.828125 L 3.046875 -18.828125 L 12.359375 -8 L 12.359375 -18.421875 L 16.078125 -18.421875 L 16.078125 0.390625 L 15.09375 0.390625 Z M 5.75 -10.03125 "/></g></g></g><g fill="#000000" fill-opacity="1"><g transform="translate(240.616207, 28.437838)"><g><path d="M 15.375 -1.140625 C 14.664062 -0.742188 13.910156 -0.4375 13.109375 -0.21875 C 12.316406 0 11.484375 0.109375 10.609375 0.109375 C 9.085938 0.109375 7.742188 -0.144531 6.578125 -0.65625 C 5.421875 -1.175781 4.445312 -1.867188 3.65625 -2.734375 C 2.863281 -3.609375 2.265625 -4.59375 1.859375 -5.6875 C 1.460938 -6.78125 1.253906 -7.910156 1.234375 -9.078125 C 1.222656 -10.242188 1.398438 -11.378906 1.765625 -12.484375 C 2.140625 -13.585938 2.710938 -14.585938 3.484375 -15.484375 C 4.253906 -16.390625 5.234375 -17.117188 6.421875 -17.671875 C 7.609375 -18.234375 9.003906 -18.539062 10.609375 -18.59375 C 11.347656 -18.632812 12.019531 -18.601562 12.625 -18.5 C 13.238281 -18.394531 13.742188 -18.28125 14.140625 -18.15625 C 14.546875 -18.039062 14.800781 -17.960938 14.90625 -17.921875 L 14.46875 -14.1875 C 14.113281 -14.34375 13.625 -14.5 13 -14.65625 C 12.382812 -14.820312 11.585938 -14.890625 10.609375 -14.859375 C 9.535156 -14.828125 8.625 -14.59375 7.875 -14.15625 C 7.132812 -13.726562 6.539062 -13.175781 6.09375 -12.5 C 5.65625 -11.832031 5.367188 -11.101562 5.234375 -10.3125 C 5.097656 -9.519531 5.109375 -8.726562 5.265625 -7.9375 C 5.421875 -7.15625 5.722656 -6.429688 6.171875 -5.765625 C 6.628906 -5.097656 7.226562 -4.566406 7.96875 -4.171875 C 8.707031 -3.773438 9.585938 -3.578125 10.609375 -3.578125 C 10.773438 -3.578125 10.941406 -3.585938 11.109375 -3.609375 C 11.285156 -3.640625 11.460938 -3.664062 11.640625 -3.6875 L 11.640625 -9.234375 L 15.375 -9.234375 Z M 15.375 -1.140625 "/></g></g></g><g fill="#000000" fill-opacity="1"><g transform="translate(257.975143, 28.437838)"><g><path d="M 8.796875 0 L 5.109375 0 L 5.109375 -14.75 L 0.515625 -14.75 L 0.515625 -18.421875 L 13.390625 -18.421875 L 13.390625 -14.75 L 8.796875 -14.75 Z M 8.796875 0 "/></g></g></g><g fill="#000000" fill-opacity="1"><g transform="translate(272.084115, 28.437838)"><g><path d="M 14.96875 0 L 11.265625 0 L 11.265625 -7.375 L 5.75 -7.375 L 5.75 0 L 2.0625 0 L 2.0625 -18.4375 L 5.75 -18.4375 L 5.75 -11.0625 L 11.265625 -11.0625 L 11.265625 -18.4375 L 14.96875 -18.4375 Z M 14.96875 0 "/></g></g></g><g fill="#000000" fill-opacity="1"><g transform="translate(289.144214, 28.437838)"><g/></g></g><g fill="#000000" fill-opacity="1"><g transform="translate(165.761466, 152.734477)"><g><path d="M 18.6875 0 L 10.859375 0 L 10.859375 -31.359375 L 1.09375 -31.359375 L 1.09375 -39.140625 L 28.453125 -39.140625 L 28.453125 -31.359375 L 18.6875 -31.359375 Z M 18.6875 0 "/></g></g></g><g fill="#000000" fill-opacity="1"><g transform="translate(195.737774, 152.734477)"><g><path d="M 24.671875 0 L 4.390625 0 L 4.390625 -39.1875 L 24.015625 -39.1875 L 24.015625 -31.359375 L 12.21875 -31.359375 L 12.21875 -23.515625 L 22.53125 -23.515625 L 22.53125 -15.671875 L 12.21875 -15.671875 L 12.21875 -7.84375 L 24.671875 -7.84375 Z M 24.671875 0 "/></g></g></g><g fill="#000000" fill-opacity="1"><g transform="translate(223.360517, 152.734477)"><g/></g></g><g fill="#000000" fill-opacity="1"><g transform="translate(238.924084, 152.734477)"><g/></g></g><g fill="#000000" fill-opacity="1"><g transform="translate(254.49426, 152.734477)"><g><path d="M 31.796875 0 L 23.953125 0 L 23.953125 -15.671875 L 12.21875 -15.671875 L 12.21875 0 L 4.390625 0 L 4.390625 -39.1875 L 12.21875 -39.1875 L 12.21875 -23.515625 L 23.953125 -23.515625 L 23.953125 -39.1875 L 31.796875 -39.1875 Z M 31.796875 0 "/></g></g></g><g clip-path="url(#6895aa7513)"><path fill="#000000" d="M 264.542969 137.253906 L 251.789062 142.535156 L 247.707031 144.222656 L 259.054688 148.929688 L 258.945312 149.214844 C 262.003906 146.042969 264.054688 141.878906 264.542969 137.253906 Z M 257.09375 150.898438 L 244.34375 145.617188 L 240.257812 143.925781 L 243.890625 152.695312 L 245.007812 155.394531 C 249.574219 155.25 253.777344 153.585938 257.09375 150.898438 Z M 241.507812 153.667969 L 236.894531 142.535156 L 236.609375 141.824219 L 235.203125 138.449219 L 230.761719 149.179688 L 230.457031 149.917969 C 233.59375 152.859375 237.667969 154.808594 242.183594 155.285156 Z M 228.53125 147.847656 L 233.820312 135.085938 L 235.511719 131.003906 L 224.367188 135.617188 L 224.042969 135.753906 C 224.1875 140.332031 225.84375 144.519531 228.53125 147.847656 Z M 224.144531 132.929688 L 236.894531 127.648438 L 240.988281 125.957031 L 229.519531 121.210938 C 226.578125 124.347656 224.621094 128.414062 224.144531 132.929688 Z M 231.589844 119.285156 L 244.34375 124.566406 L 244.828125 124.773438 L 248.425781 126.253906 L 243.8125 115.121094 L 243.675781 114.789062 C 239.109375 114.933594 234.917969 116.597656 231.589844 119.285156 Z M 246.5 114.898438 L 251.789062 127.648438 L 252.707031 129.871094 L 253.480469 131.734375 L 257.203125 122.75 L 258.226562 120.265625 C 255.089844 117.324219 251.015625 115.375 246.5 114.898438 Z M 259.578125 123.71875 L 255.539062 133.46875 L 254.875 135.085938 L 253.171875 139.179688 L 264.640625 134.429688 C 264.496094 129.851562 262.839844 125.660156 260.152344 122.335938 Z M 259.578125 123.71875 " fill-opacity="1" fill-rule="nonzero"/></g><g clip-path="url(#6d5d85ea63)"><path fill="#77353d" d="M 299.617188 35.769531 L 314.414062 35.769531 L 314.414062 107.207031 L 299.617188 107.207031 Z M 299.617188 35.769531 " fill-opacity="1" fill-rule="nonzero"/></g><g clip-path="url(#84b71d679a)"><path fill="#77353d" d="M 299.621094 107.191406 L 299.621094 92.394531 L 357.246094 92.394531 L 357.246094 107.191406 Z M 299.621094 107.191406 " fill-opacity="1" fill-rule="nonzero"/></g><g clip-path="url(#d3b8916da5)"><path fill="#77353d" d="M 299.613281 78.882812 L 299.613281 64.085938 L 341.75 64.085938 L 341.75 78.882812 Z M 299.613281 78.882812 " fill-opacity="1" fill-rule="nonzero"/></g><g clip-path="url(#bb64f4b615)"><path fill="#77353d" d="M 299.617188 50.558594 L 299.617188 35.761719 L 330.363281 35.761719 L 330.363281 50.558594 Z M 299.617188 50.558594 " fill-opacity="1" fill-rule="nonzero"/></g><g clip-path="url(#8f3ef6665a)"><path fill="#77353d" d="M 115.773438 35.769531 L 130.570312 35.769531 L 130.570312 107.207031 L 115.773438 107.207031 Z M 115.773438 35.769531 " fill-opacity="1" fill-rule="nonzero"/></g><g clip-path="url(#66252c4b7b)"><path fill="#77353d" d="M 115.769531 107.199219 L 115.769531 92.402344 L 151.777344 92.402344 L 151.777344 107.199219 Z M 115.769531 107.199219 " fill-opacity="1" fill-rule="nonzero"/></g><g clip-path="url(#3e8ffc9bd9)"><path fill="#77353d" d="M 115.769531 78.878906 L 115.769531 64.082031 L 151.777344 64.082031 L 151.777344 78.878906 Z M 115.769531 78.878906 " fill-opacity="1" fill-rule="nonzero"/></g><g clip-path="url(#b2e92a4c30)"><path fill="#77353d" d="M 115.769531 50.558594 L 115.769531 35.765625 L 151.777344 35.765625 L 151.777344 50.558594 Z M 115.769531 50.558594 " fill-opacity="1" fill-rule="nonzero"/></g></svg>